<svg xmlns="http://www.w3.org/2000/svg" viewBox="0 0 600 800" width="600" height="800" role="img" aria-label="Capa: Meta-análise no R">
  <defs>
    <linearGradient id="fundo" x1="0" y1="0" x2="0" y2="1">
      <stop offset="0" stop-color="#0e5a6a"/>
      <stop offset="1" stop-color="#0a3f4b"/>
    </linearGradient>
  </defs>
  <rect width="600" height="800" fill="url(#fundo)"/>
  <text x="60" y="92" fill="#e8a33d" font-family="'Source Sans 3', 'Helvetica Neue', Arial, sans-serif" font-size="17" font-weight="600" letter-spacing="3.5">GUIA PRÁTICO</text>
  <text fill="#ffffff" font-family="'Source Serif 4', Georgia, 'Times New Roman', serif" font-weight="600" font-size="68">
    <tspan x="56" y="172">Meta-análise</tspan>
    <tspan x="56" y="248">no R</tspan>
  </text>
  <text fill="#f3ead8" fill-opacity=".85" font-family="'Source Sans 3', 'Helvetica Neue', Arial, sans-serif" font-size="21">
    <tspan x="60" y="296">para estudantes da área da saúde</tspan>
  </text>
  <line x1="361.2" y1="342" x2="361.2" y2="652" stroke="#ffffff" stroke-opacity=".55" stroke-width="1.5"/>
  <line x1="326.1" y1="342" x2="326.1" y2="652" stroke="#e8a33d" stroke-opacity=".8" stroke-width="1.5" stroke-dasharray="5 5"/>
    <line x1="165.6" y1="372" x2="377.1" y2="372" stroke="#f3ead8" stroke-opacity=".75" stroke-width="2.2"/>
  <rect x="263.6" y="364.4" width="15.1" height="15.1" fill="#f3ead8"/>
  <line x1="148.3" y1="406" x2="363.9" y2="406" stroke="#f3ead8" stroke-opacity=".75" stroke-width="2.2"/>
  <rect x="248.0" y="398.5" width="14.9" height="14.9" fill="#f3ead8"/>
  <line x1="225.7" y1="440" x2="377.1" y2="440" stroke="#f3ead8" stroke-opacity=".75" stroke-width="2.2"/>
  <rect x="291.3" y="431.3" width="17.3" height="17.3" fill="#f3ead8"/>
  <line x1="165.6" y1="474" x2="437.3" y2="474" stroke="#f3ead8" stroke-opacity=".75" stroke-width="2.2"/>
  <rect x="293.2" y="467.2" width="13.6" height="13.6" fill="#f3ead8"/>
  <line x1="197.3" y1="508" x2="399.5" y2="508" stroke="#f3ead8" stroke-opacity=".75" stroke-width="2.2"/>
  <rect x="292.3" y="500.3" width="15.5" height="15.5" fill="#f3ead8"/>
  <line x1="341.3" y1="542" x2="447.5" y2="542" stroke="#f3ead8" stroke-opacity=".75" stroke-width="2.2"/>
  <rect x="384.7" y="532.0" width="19.9" height="19.9" fill="#f3ead8"/>
  <line x1="310.1" y1="576" x2="352.8" y2="576" stroke="#f3ead8" stroke-opacity=".75" stroke-width="2.2"/>
  <rect x="317.2" y="564.0" width="24.0" height="24.0" fill="#f3ead8"/>
  <polygon points="289.5,626 326.1,615 358.4,626 326.1,637" fill="#e8a33d"/>
  <line x1="110" y1="658" x2="490" y2="658" stroke="#ffffff" stroke-opacity=".35" stroke-width="1"/>
  <text fill="#f3ead8" fill-opacity=".85" font-family="'Source Sans 3', 'Helvetica Neue', Arial, sans-serif" font-size="17">
    <tspan x="60" y="722">Camilo André Viana Diaz</tspan>
    <tspan x="60" y="748">Ana Paula Fernandes</tspan>
  </text>
</svg>
